<svg viewBox="0 0 180 180" xmlns="http://www.w3.org/2000/svg">
  <!-- 배경 원 -->
  <circle cx="90" cy="90" r="85" fill="#3b82f6"/>
  
  <!-- 내부 흰색 테두리 -->
  <circle cx="90" cy="90" r="75" fill="#ffffff"/>
  
  <!-- 책 -->
  <rect x="45" y="55" width="60" height="70" rx="4" fill="#f8fafc" stroke="#e2e8f0" stroke-width="2"/>
  
  <!-- 책 페이지 라인들 -->
  <line x1="50" y1="65" x2="100" y2="65" stroke="#cbd5e1" stroke-width="1"/>
  <line x1="50" y1="75" x2="95" y2="75" stroke="#cbd5e1" stroke-width="1"/>
  <line x1="50" y1="85" x2="100" y2="85" stroke="#cbd5e1" stroke-width="1"/>
  <line x1="50" y1="95" x2="90" y2="95" stroke="#cbd5e1" stroke-width="1"/>
  <line x1="50" y1="105" x2="100" y2="105" stroke="#cbd5e1" stroke-width="1"/>
  <line x1="50" y1="115" x2="85" y2="115" stroke="#cbd5e1" stroke-width="1"/>
  
  <!-- 하트 (오른쪽 상단) -->
  <path d="M 125 55 C 120 50, 110 50, 110 60 C 110 50, 100 50, 95 55 C 90 60, 95 70, 110 80 C 125 70, 130 60, 125 55 Z" fill="#ef4444"/>
  
  <!-- 책갈피 -->
  <rect x="52" y="55" width="4" height="15" fill="#10b981"/>
  
  <!-- 반짝임 효과 -->
  <circle cx="70" cy="70" r="2" fill="#ffffff" opacity="0.8"/>
  <circle cx="120" cy="45" r="2" fill="#ffffff" opacity="0.6"/>
  <circle cx="140" cy="130" r="1.5" fill="#ffffff" opacity="0.5"/>
</svg>