<svg viewBox="0 0 64 64" xmlns="http://www.w3.org/2000/svg">
  <!-- 배경 -->
  <circle cx="32" cy="32" r="30" fill="#3b82f6" stroke="#1e40af" stroke-width="2"/>
  
  <!-- 책 베이스 -->
  <rect x="14" y="18" width="24" height="32" rx="2" fill="#ffffff"/>
  <rect x="16" y="20" width="20" height="28" rx="1" fill="#f8fafc"/>
  
  <!-- 책 페이지들 -->
  <line x1="18" y1="26" x2="34" y2="26" stroke="#cbd5e1" stroke-width="1"/>
  <line x1="18" y1="30" x2="32" y2="30" stroke="#cbd5e1" stroke-width="1"/>
  <line x1="18" y1="34" x2="34" y2="34" stroke="#cbd5e1" stroke-width="1"/>
  <line x1="18" y1="38" x2="30" y2="38" stroke="#cbd5e1" stroke-width="1"/>
  
  <!-- 하트 아이콘 (비주얼 노벨의 로맨스 요소) -->
  <path d="M 42 24 C 40 22, 36 22, 36 26 C 36 22, 32 22, 30 24 C 28 26, 30 30, 36 34 C 42 30, 44 26, 42 24 Z" fill="#ef4444"/>
  
  <!-- 책갈피 -->
  <rect x="20" y="18" width="2" height="8" fill="#10b981"/>
  
  <!-- 반짝임 효과 -->
  <circle cx="24" cy="24" r="1" fill="#ffffff" opacity="0.8"/>
  <circle cx="44" cy="20" r="1" fill="#ffffff" opacity="0.6"/>
</svg>